# xmcd
#
# Track frame offsets:
#	150
#	13079
#	22684
#	42402
#	54659
#	64336
#	75964
#	87018
#	101436
#	123560
#	147376
#	162664
#	177423
#	194400
#	214631
#	224817
#	241085
#	255497
#	273232
#	287239
#
# Disc length: 4175 seconds
#
# Revision: 1
# Processed by: cddbd v1.5.2PL0 Copyright (c) Steve Scherf et al.
# Submitted via: audiograbber 1.83.01
#
DISCID=23104d14
DTITLE=Glen Campbell - 20 Greatest Hits ~ In Concert
DYEAR=1900
DGENRE=Country
TTITLE0=Rhinestone Cowboy
TTITLE1=gentle On Mt Mind
TTITLE2=Medley WichitaLinesman.Galveston.CountryBoy
TTITLE3=By The Time I Get To Phoenix
TTITLE4=Dreams of The Everyday Housewife
TTITLE5=Hearthache No 3
TTITLE6=Its Only Make Believe
TTITLE7=Crying
TTITLE8=Bluegrass Medley
TTITLE9=Milk Cow Blues
TTITLE10=Rollin In My Sweet Babies Arms
TTITLE11=I'm Co Lonesome I Could Cry
TTITLE12=Southern Nights
TTITLE13=Amazing Grace
TTITLE14=Try A Little Kindness
TTITLE15=Please Come To Boston
TTITLE16=In Your Loving Arms
TTITLE17=It's Your World Boys And Girls
TTITLE18=Trials and Tribulations
TTITLE19=Mull Of Kintyre
EXTD=
EXTT0=
EXTT1=
EXTT2=
EXTT3=
EXTT4=
EXTT5=
EXTT6=
EXTT7=
EXTT8=
EXTT9=
EXTT10=
EXTT11=
EXTT12=
EXTT13=
EXTT14=
EXTT15=
EXTT16=
EXTT17=
EXTT18=
EXTT19=
PLAYORDER=
